<?xml version="1.0" encoding="UTF-8" standalone="no"?>
<svg
   width="164"
   zoomAndPan="magnify"
   viewBox="0 0 123 101.24999"
   height="135"
   preserveAspectRatio="xMidYMid"
   version="1.0"
   id="svg154"
   sodipodi:docname="Milli (1).svg"
   inkscape:version="1.2.2 (b0a8486, 2022-12-01)"
   xmlns:inkscape="http://www.inkscape.org/namespaces/inkscape"
   xmlns:sodipodi="http://sodipodi.sourceforge.net/DTD/sodipodi-0.dtd"
   xmlns="http://www.w3.org/2000/svg"
   xmlns:svg="http://www.w3.org/2000/svg">
  <sodipodi:namedview
     id="namedview156"
     pagecolor="#ffffff"
     bordercolor="#000000"
     borderopacity="0.25"
     inkscape:showpageshadow="2"
     inkscape:pageopacity="0.0"
     inkscape:pagecheckerboard="0"
     inkscape:deskcolor="#d1d1d1"
     showgrid="false"
     inkscape:zoom="0.95270891"
     inkscape:cx="343.23181"
     inkscape:cy="249.28916"
     inkscape:window-width="1685"
     inkscape:window-height="787"
     inkscape:window-x="0"
     inkscape:window-y="25"
     inkscape:window-maximized="0"
     inkscape:current-layer="svg154" />
  <defs
     id="defs134">
    <g
       id="g132" />
  </defs>
  <g
     fill="#24282b"
     fill-opacity="1"
     id="g142"
     transform="translate(-96.927965,-113.96186)">
    <g
       transform="translate(95.002017,210.54693)"
       id="g140">
      <g
         id="g138">
        <path
           d="m 24.46875,-17.96875 c -0.886719,-0.132812 -1.714844,-0.34375 -2.484375,-0.625 -0.761719,-0.289062 -1.429687,-0.660156 -2,-1.109375 -0.125,1.855469 -0.273437,3.308594 -0.4375,4.359375 -0.15625,1.054688 -0.28125,2.121094 -0.375,3.203125 -0.09375,1.085937 -0.140625,2.546875 -0.140625,4.390625 -0.0625,2.492188 -0.78125,4.359375 -2.15625,5.609375 -1.375,1.242187 -2.859375,1.859375 -4.453125,1.859375 -1.523437,0 -2.9375,-0.570312 -4.25,-1.71875 -1.304687,-1.15625 -2.117187,-2.910156 -2.4375,-5.265625 0,-7.96875 0.585937,-15.628906 1.765625,-22.984375 1.1875,-7.363281 2.445312,-14.140625 3.78125,-20.328125 0.632812,-3 1.414062,-5.753906 2.34375,-8.265625 0.925781,-2.519531 2.375,-4.546875 4.34375,-6.078125 1.976562,-1.53125 4.847656,-2.296875 8.609375,-2.296875 0.769531,0 1.519531,0.164062 2.25,0.484375 0.726563,0.324219 1.507813,0.804687 2.34375,1.4375 2.863281,2.867187 5.425781,6.496094 7.6875,10.890625 2.269531,4.398438 4.25,9.117188 5.9375,14.15625 1.6875,5.03125 3.117187,10.007812 4.296875,14.921875 1.175781,4.90625 2.117188,9.304687 2.828125,13.1875 L 53.0625,-9.46875 c 0.320312,1.148438 0.484375,2.105469 0.484375,2.875 0,1.96875 -0.625,3.5625 -1.875,4.78125 C 50.429688,-0.601562 48.984375,0 47.328125,0 45.347656,0 43.800781,-0.601562 42.6875,-1.8125 c -1.117188,-1.21875 -1.960938,-2.71875 -2.53125,-4.5 -0.574219,-1.78125 -1.039062,-3.5625 -1.390625,-5.34375 -0.34375,-1.789062 -0.710937,-3.289062 -1.09375,-4.5 -0.386719,-1.207031 -0.992187,-1.8125 -1.8125,-1.8125 -0.0625,0 -0.132813,0 -0.203125,0 -0.0625,0 -0.125,0 -0.1875,0 z M 25.90625,-51.25 c -0.636719,2.042969 -1.433594,4.261719 -2.390625,6.65625 -0.960937,2.386719 -1.4375,4.949219 -1.4375,7.6875 0,1.78125 0.175781,3.167969 0.53125,4.15625 0.351563,0.992188 1.132813,1.484375 2.34375,1.484375 h 7.65625 c 0.695313,0 1.046875,-0.285156 1.046875,-0.859375 0,-0.25 -0.03125,-0.484375 -0.09375,-0.703125 -0.0625,-0.226563 -0.125,-0.472656 -0.1875,-0.734375 -0.960938,-3.1875 -2.03125,-6.101562 -3.21875,-8.75 -1.179688,-2.644531 -2.59375,-5.625 -4.25,-8.9375 z m 0,0"
           id="path136" />
      </g>
    </g>
  </g>
  <g
     fill="#24282b"
     fill-opacity="1"
     id="g150"
     transform="translate(-126.27376,-127.30086)">
    <g
       transform="translate(179.79675,223.88593)"
       id="g148">
      <g
         id="g146">
        <path
           d="m 20.9375,-9.171875 c -0.0625,2.480469 -0.78125,4.34375 -2.15625,5.59375 -1.367188,1.242187 -2.84375,1.859375 -4.4375,1.859375 -1.53125,0 -2.953125,-0.570312 -4.265625,-1.71875 C 8.773438,-4.582031 7.96875,-6.335938 7.65625,-8.703125 c 0.125,-4.332031 0.328125,-8.039063 0.609375,-11.125 0.289063,-3.09375 0.578125,-5.992187 0.859375,-8.703125 0.289062,-2.71875 0.546875,-5.617188 0.765625,-8.703125 0.226563,-3.09375 0.34375,-6.804687 0.34375,-11.140625 0,-1.082031 -0.05469,-2.257812 -0.15625,-3.53125 -0.09375,-1.28125 -0.140625,-2.429688 -0.140625,-3.453125 0,-1.019531 0.191406,-2.195313 0.578125,-3.53125 0.382813,-1.34375 1.085937,-2.539063 2.109375,-3.59375 1.019531,-1.050781 2.484375,-1.578125 4.390625,-1.578125 0.832031,0 1.820313,0.195312 2.96875,0.578125 0.757813,0.449219 1.726563,1.277344 2.90625,2.484375 1.1875,1.210938 2.445313,2.5625 3.78125,4.0625 1.34375,1.5 2.664063,2.96875 3.96875,4.40625 1.3125,1.429688 2.492187,2.621094 3.546875,3.578125 1.050781,0.960937 1.828125,1.4375 2.328125,1.4375 1.726563,-2.101563 3.53125,-4.207031 5.40625,-6.3125 1.882813,-2.101563 3.925781,-4.015625 6.125,-5.734375 2.195313,-1.71875 4.601563,-2.960938 7.21875,-3.734375 1.78125,0 3.257813,0.273437 4.4375,0.8125 1.1875,0.542969 2.066406,1.609375 2.640625,3.203125 0.570312,1.59375 0.859375,3.984375 0.859375,7.171875 0,4.96875 -0.132813,10.132813 -0.390625,15.484375 -0.25,5.355469 -0.539062,10.648438 -0.859375,15.875 -0.3125,5.230469 -0.601563,10.105469 -0.859375,14.625 -0.0625,2.492188 -0.796875,4.359375 -2.203125,5.609375 C 57.492188,0.722656 56.03125,1.34375 54.5,1.34375 52.96875,1.34375 51.546875,0.769531 50.234375,-0.375 48.929688,-1.53125 48.125,-3.285156 47.8125,-5.640625 47.875,-9.910156 47.96875,-13.863281 48.09375,-17.5 c 0.125,-3.632812 0.296875,-7.265625 0.515625,-10.890625 0.226563,-3.632813 0.46875,-7.554687 0.71875,-11.765625 l 0.109375,-1.625 c -1.59375,2.042969 -3.289062,3.9375 -5.078125,5.6875 -1.78125,1.75 -3.949219,2.625 -6.5,2.625 -2.742187,0 -5.355469,-0.773438 -7.84375,-2.328125 -2.480469,-1.5625 -4.742187,-3.332031 -6.78125,-5.3125 -0.125,3.699219 -0.304687,6.777344 -0.53125,9.234375 -0.21875,2.449219 -0.445313,4.695312 -0.671875,6.734375 -0.21875,2.042969 -0.429688,4.277344 -0.625,6.703125 -0.1875,2.417969 -0.34375,5.507812 -0.46875,9.265625 z m 0,0"
           id="path144" />
      </g>
    </g>
  </g>
  <path
     stroke-linecap="round"
     fill="none"
     stroke-linejoin="miter"
     d="M 45.59343,10.335859 H 76.859057"
     stroke="#00bf63"
     stroke-width="12"
     stroke-opacity="1"
     stroke-miterlimit="4"
     id="path152" />
</svg>
