<?xml version="1.0" encoding="UTF-8" standalone="no"?>
<svg
   width="418"
   zoomAndPan="magnify"
   viewBox="0 0 313.5 101.24999"
   height="135"
   preserveAspectRatio="xMidYMid"
   version="1.0"
   id="svg192"
   sodipodi:docname="Milli.svg"
   inkscape:export-filename="Milli.png"
   inkscape:export-xdpi="96"
   inkscape:export-ydpi="96"
   inkscape:version="1.2.2 (b0a8486, 2022-12-01)"
   xmlns:inkscape="http://www.inkscape.org/namespaces/inkscape"
   xmlns:sodipodi="http://sodipodi.sourceforge.net/DTD/sodipodi-0.dtd"
   xmlns="http://www.w3.org/2000/svg"
   xmlns:svg="http://www.w3.org/2000/svg">
  <sodipodi:namedview
     id="namedview194"
     pagecolor="#ffffff"
     bordercolor="#000000"
     borderopacity="0.25"
     inkscape:showpageshadow="2"
     inkscape:pageopacity="0.0"
     inkscape:pagecheckerboard="0"
     inkscape:deskcolor="#d1d1d1"
     showgrid="false"
     inkscape:zoom="1.0159849"
     inkscape:cx="273.13397"
     inkscape:cy="202.75891"
     inkscape:window-width="1824"
     inkscape:window-height="964"
     inkscape:window-x="0"
     inkscape:window-y="25"
     inkscape:window-maximized="0"
     inkscape:current-layer="g142" />
  <defs
     id="defs134">
    <g
       id="g132" />
  </defs>
  <g
     fill="#24282b"
     fill-opacity="1"
     id="g142">
    <g
       transform="translate(-0.51075238,96.047545)"
       id="g140">
      <g
         id="g138">
        <path
           d="m 24.46875,-17.96875 c -0.886719,-0.132812 -1.714844,-0.34375 -2.484375,-0.625 -0.761719,-0.289062 -1.429687,-0.660156 -2,-1.109375 -0.125,1.855469 -0.273437,3.308594 -0.4375,4.359375 -0.15625,1.054688 -0.28125,2.121094 -0.375,3.203125 -0.09375,1.085937 -0.140625,2.546875 -0.140625,4.390625 -0.0625,2.492188 -0.78125,4.359375 -2.15625,5.609375 -1.375,1.242187 -2.859375,1.859375 -4.453125,1.859375 -1.523437,0 -2.9375,-0.570312 -4.25,-1.71875 -1.304687,-1.15625 -2.117187,-2.910156 -2.4375,-5.265625 0,-7.96875 0.585937,-15.628906 1.765625,-22.984375 1.1875,-7.363281 2.445312,-14.140625 3.78125,-20.328125 0.632812,-3 1.414062,-5.753906 2.34375,-8.265625 0.925781,-2.519531 2.375,-4.546875 4.34375,-6.078125 1.976562,-1.53125 4.847656,-2.296875 8.609375,-2.296875 0.769531,0 1.519531,0.164062 2.25,0.484375 0.726563,0.324219 1.507813,0.804687 2.34375,1.4375 2.863281,2.867187 5.425781,6.496094 7.6875,10.890625 2.269531,4.398438 4.25,9.117188 5.9375,14.15625 1.6875,5.03125 3.117187,10.007812 4.296875,14.921875 1.175781,4.90625 2.117188,9.304687 2.828125,13.1875 L 53.0625,-9.46875 c 0.320312,1.148438 0.484375,2.105469 0.484375,2.875 0,1.96875 -0.625,3.5625 -1.875,4.78125 C 50.429688,-0.601562 48.984375,0 47.328125,0 45.347656,0 43.800781,-0.601562 42.6875,-1.8125 c -1.117188,-1.21875 -1.960938,-2.71875 -2.53125,-4.5 -0.574219,-1.78125 -1.039062,-3.5625 -1.390625,-5.34375 -0.34375,-1.789062 -0.710937,-3.289062 -1.09375,-4.5 -0.386719,-1.207031 -0.992187,-1.8125 -1.8125,-1.8125 -0.0625,0 -0.132813,0 -0.203125,0 -0.0625,0 -0.125,0 -0.1875,0 z M 25.90625,-51.25 c -0.636719,2.042969 -1.433594,4.261719 -2.390625,6.65625 -0.960937,2.386719 -1.4375,4.949219 -1.4375,7.6875 0,1.78125 0.175781,3.167969 0.53125,4.15625 0.351563,0.992188 1.132813,1.484375 2.34375,1.484375 h 7.65625 c 0.695313,0 1.046875,-0.285156 1.046875,-0.859375 0,-0.25 -0.03125,-0.484375 -0.09375,-0.703125 -0.0625,-0.226563 -0.125,-0.472656 -0.1875,-0.734375 -0.960938,-3.1875 -2.03125,-6.101562 -3.21875,-8.75 -1.179688,-2.644531 -2.59375,-5.625 -4.25,-8.9375 z m 0,0"
           id="path136" />
      </g>
    </g>
  </g>
  <g
     fill="#24282b"
     fill-opacity="1"
     id="g148">
    <g
       transform="translate(86.680779,215.63593)"
       id="g146">
      <g
         id="g144" />
    </g>
  </g>
  <g
     fill="#24282b"
     fill-opacity="1"
     id="g156"
     transform="translate(-31.742596,-119.58839)">
    <g
       transform="translate(115.36126,215.63593)"
       id="g154">
      <g
         id="g152">
        <path
           d="m 20.9375,-9.171875 c -0.0625,2.480469 -0.78125,4.34375 -2.15625,5.59375 -1.367188,1.242187 -2.84375,1.859375 -4.4375,1.859375 -1.53125,0 -2.953125,-0.570312 -4.265625,-1.71875 C 8.773438,-4.582031 7.96875,-6.335938 7.65625,-8.703125 c 0.125,-4.332031 0.328125,-8.039063 0.609375,-11.125 0.289063,-3.09375 0.578125,-5.992187 0.859375,-8.703125 0.289062,-2.71875 0.546875,-5.617188 0.765625,-8.703125 0.226563,-3.09375 0.34375,-6.804687 0.34375,-11.140625 0,-1.082031 -0.05469,-2.257812 -0.15625,-3.53125 -0.09375,-1.28125 -0.140625,-2.429688 -0.140625,-3.453125 0,-1.019531 0.191406,-2.195313 0.578125,-3.53125 0.382813,-1.34375 1.085937,-2.539063 2.109375,-3.59375 1.019531,-1.050781 2.484375,-1.578125 4.390625,-1.578125 0.832031,0 1.820313,0.195312 2.96875,0.578125 0.757813,0.449219 1.726563,1.277344 2.90625,2.484375 1.1875,1.210938 2.445313,2.5625 3.78125,4.0625 1.34375,1.5 2.664063,2.96875 3.96875,4.40625 1.3125,1.429688 2.492187,2.621094 3.546875,3.578125 1.050781,0.960937 1.828125,1.4375 2.328125,1.4375 1.726563,-2.101563 3.53125,-4.207031 5.40625,-6.3125 1.882813,-2.101563 3.925781,-4.015625 6.125,-5.734375 2.195313,-1.71875 4.601563,-2.960938 7.21875,-3.734375 1.78125,0 3.257813,0.273437 4.4375,0.8125 1.1875,0.542969 2.066406,1.609375 2.640625,3.203125 0.570312,1.59375 0.859375,3.984375 0.859375,7.171875 0,4.96875 -0.132813,10.132813 -0.390625,15.484375 -0.25,5.355469 -0.539062,10.648438 -0.859375,15.875 -0.3125,5.230469 -0.601563,10.105469 -0.859375,14.625 -0.0625,2.492188 -0.796875,4.359375 -2.203125,5.609375 C 57.492188,0.722656 56.03125,1.34375 54.5,1.34375 52.96875,1.34375 51.546875,0.769531 50.234375,-0.375 48.929688,-1.53125 48.125,-3.285156 47.8125,-5.640625 47.875,-9.910156 47.96875,-13.863281 48.09375,-17.5 c 0.125,-3.632812 0.296875,-7.265625 0.515625,-10.890625 0.226563,-3.632813 0.46875,-7.554687 0.71875,-11.765625 l 0.109375,-1.625 c -1.59375,2.042969 -3.289062,3.9375 -5.078125,5.6875 -1.78125,1.75 -3.949219,2.625 -6.5,2.625 -2.742187,0 -5.355469,-0.773438 -7.84375,-2.328125 -2.480469,-1.5625 -4.742187,-3.332031 -6.78125,-5.3125 -0.125,3.699219 -0.304687,6.777344 -0.53125,9.234375 -0.21875,2.449219 -0.445313,4.695312 -0.671875,6.734375 -0.21875,2.042969 -0.429688,4.277344 -0.625,6.703125 -0.1875,2.417969 -0.34375,5.507812 -0.46875,9.265625 z m 0,0"
           id="path150" />
      </g>
    </g>
  </g>
  <g
     fill="#24282b"
     fill-opacity="1"
     id="g164"
     transform="translate(-31.742596,-119.58839)">
    <g
       transform="translate(186.20205,215.63593)"
       id="g162">
      <g
         id="g160">
        <path
           d="m 8.984375,-23.8125 c 0.125,-2.613281 0.296875,-5.460938 0.515625,-8.546875 0.226562,-3.09375 0.535156,-6.21875 0.921875,-9.375 0.382813,-3.15625 0.765625,-6.101563 1.140625,-8.84375 0.382812,-1.65625 1.003906,-3.519531 1.859375,-5.59375 0.863281,-2.070313 1.960937,-3.867187 3.296875,-5.390625 1.34375,-1.53125 2.878906,-2.296875 4.609375,-2.296875 1.144531,0 2.191406,0.542969 3.140625,1.625 0.957031,1.085937 1.722656,2.390625 2.296875,3.921875 0.570313,1.523438 0.859375,2.984375 0.859375,4.390625 0,0.636719 -0.09375,1.292969 -0.28125,1.96875 -0.1875,0.667969 -0.445312,1.382813 -0.765625,2.140625 -1.273437,2.804688 -2.324219,5.914062 -3.15625,9.328125 -0.824219,3.40625 -1.445313,6.851563 -1.859375,10.328125 -0.417969,3.46875 -0.625,6.734375 -0.625,9.796875 0,1.65625 0.07813,3.34375 0.234375,5.0625 0.164063,1.71875 0.25,3.40625 0.25,5.0625 0,1.085937 -0.101563,2.375 -0.296875,3.875 -0.1875,1.5 -0.636719,2.808594 -1.34375,3.921875 -0.699219,1.117188 -1.8125,1.671875 -3.34375,1.671875 -1.71875,0 -3.234375,-0.664063 -4.546875,-2 C 10.585938,-4.109375 9.554688,-5.6875 8.796875,-7.5 8.035156,-9.320312 7.65625,-10.960938 7.65625,-12.421875 c 0,-1.726563 0.171875,-3.5625 0.515625,-5.5 0.351563,-1.945313 0.625,-3.910156 0.8125,-5.890625 z m 0,0"
           id="path158" />
      </g>
    </g>
  </g>
  <g
     fill="#24282b"
     fill-opacity="1"
     id="g172"
     transform="translate(-31.742596,-119.58839)">
    <g
       transform="translate(217.65498,215.63593)"
       id="g170">
      <g
         id="g168">
        <path
           d="m 8.515625,-60.8125 c 0.507813,-2.101562 1.398437,-3.695312 2.671875,-4.78125 1.269531,-1.082031 2.609375,-1.625 4.015625,-1.625 1.332031,0 2.617187,0.480469 3.859375,1.4375 1.25,0.960938 2.160156,2.460938 2.734375,4.5 0,4.78125 0,9.246094 0,13.390625 0,4.136719 -0.01563,8.214844 -0.04687,12.234375 -0.03125,4.011719 -0.07813,8.246094 -0.140625,12.703125 0,0.648437 0.109375,1.480469 0.328125,2.5 0.226562,1.011719 0.800781,1.902344 1.71875,2.671875 0.925781,0.761719 2.378906,1.140625 4.359375,1.140625 2.550781,0 5.097656,0.01563 7.640625,0.04687 2.550781,0.03125 5.101562,0.04687 7.65625,0.04687 2.039062,0.574219 3.535156,1.484375 4.484375,2.734375 0.957031,1.242188 1.4375,2.53125 1.4375,3.875 0,1.398438 -0.542969,2.734375 -1.625,4.015625 -1.085937,1.273437 -2.679687,2.164063 -4.78125,2.671875 -1.210937,0 -2.417969,0.015625 -3.625,0.046875 -1.210937,0.03125 -2.421875,0.046875 -3.640625,0.046875 -4.210938,0 -8.414062,-0.09375 -12.609375,-0.28125 -2.617187,-0.132812 -5.105469,-0.375 -7.46875,-0.71875 -2.355469,-0.351562 -4.25,-1.117188 -5.6875,-2.296875 -1.429687,-1.175781 -2.140625,-2.976563 -2.140625,-5.40625 0,-1.207031 0.1875,-2.515625 0.5625,-3.921875 0,-5.539062 0.015625,-10.6875 0.046875,-15.4375 0.03125,-4.75 0.078125,-9.476562 0.140625,-14.1875 0.070312,-4.71875 0.109375,-9.851562 0.109375,-15.40625 z m 0,0"
           id="path166" />
      </g>
    </g>
  </g>
  <g
     fill="#24282b"
     fill-opacity="1"
     id="g180"
     transform="translate(-31.742596,-119.58839)">
    <g
       transform="translate(264.97777,215.63593)"
       id="g178">
      <g
         id="g176">
        <path
           d="m 8.515625,-60.8125 c 0.507813,-2.101562 1.398437,-3.695312 2.671875,-4.78125 1.269531,-1.082031 2.609375,-1.625 4.015625,-1.625 1.332031,0 2.617187,0.480469 3.859375,1.4375 1.25,0.960938 2.160156,2.460938 2.734375,4.5 0,4.78125 0,9.246094 0,13.390625 0,4.136719 -0.01563,8.214844 -0.04687,12.234375 -0.03125,4.011719 -0.07813,8.246094 -0.140625,12.703125 0,0.648437 0.109375,1.480469 0.328125,2.5 0.226562,1.011719 0.800781,1.902344 1.71875,2.671875 0.925781,0.761719 2.378906,1.140625 4.359375,1.140625 2.550781,0 5.097656,0.01563 7.640625,0.04687 2.550781,0.03125 5.101562,0.04687 7.65625,0.04687 2.039062,0.574219 3.535156,1.484375 4.484375,2.734375 0.957031,1.242188 1.4375,2.53125 1.4375,3.875 0,1.398438 -0.542969,2.734375 -1.625,4.015625 -1.085937,1.273437 -2.679687,2.164063 -4.78125,2.671875 -1.210937,0 -2.417969,0.015625 -3.625,0.046875 -1.210937,0.03125 -2.421875,0.046875 -3.640625,0.046875 -4.210938,0 -8.414062,-0.09375 -12.609375,-0.28125 -2.617187,-0.132812 -5.105469,-0.375 -7.46875,-0.71875 -2.355469,-0.351562 -4.25,-1.117188 -5.6875,-2.296875 -1.429687,-1.175781 -2.140625,-2.976563 -2.140625,-5.40625 0,-1.207031 0.1875,-2.515625 0.5625,-3.921875 0,-5.539062 0.015625,-10.6875 0.046875,-15.4375 0.03125,-4.75 0.078125,-9.476562 0.140625,-14.1875 0.070312,-4.71875 0.109375,-9.851562 0.109375,-15.40625 z m 0,0"
           id="path174" />
      </g>
    </g>
  </g>
  <g
     fill="#24282b"
     fill-opacity="1"
     id="g188"
     transform="translate(-31.742596,-119.58839)">
    <g
       transform="translate(312.30054,215.63593)"
       id="g186">
      <g
         id="g184">
        <path
           d="m 8.984375,-23.8125 c 0.125,-2.613281 0.296875,-5.460938 0.515625,-8.546875 0.226562,-3.09375 0.535156,-6.21875 0.921875,-9.375 0.382813,-3.15625 0.765625,-6.101563 1.140625,-8.84375 0.382812,-1.65625 1.003906,-3.519531 1.859375,-5.59375 0.863281,-2.070313 1.960937,-3.867187 3.296875,-5.390625 1.34375,-1.53125 2.878906,-2.296875 4.609375,-2.296875 1.144531,0 2.191406,0.542969 3.140625,1.625 0.957031,1.085937 1.722656,2.390625 2.296875,3.921875 0.570313,1.523438 0.859375,2.984375 0.859375,4.390625 0,0.636719 -0.09375,1.292969 -0.28125,1.96875 -0.1875,0.667969 -0.445312,1.382813 -0.765625,2.140625 -1.273437,2.804688 -2.324219,5.914062 -3.15625,9.328125 -0.824219,3.40625 -1.445313,6.851563 -1.859375,10.328125 -0.417969,3.46875 -0.625,6.734375 -0.625,9.796875 0,1.65625 0.07813,3.34375 0.234375,5.0625 0.164063,1.71875 0.25,3.40625 0.25,5.0625 0,1.085937 -0.101563,2.375 -0.296875,3.875 -0.1875,1.5 -0.636719,2.808594 -1.34375,3.921875 -0.699219,1.117188 -1.8125,1.671875 -3.34375,1.671875 -1.71875,0 -3.234375,-0.664063 -4.546875,-2 C 10.585938,-4.109375 9.554688,-5.6875 8.796875,-7.5 8.035156,-9.320312 7.65625,-10.960938 7.65625,-12.421875 c 0,-1.726563 0.171875,-3.5625 0.515625,-5.5 0.351563,-1.945313 0.625,-3.910156 0.8125,-5.890625 z m 0,0"
           id="path182" />
      </g>
    </g>
  </g>
  <path
     stroke-linecap="round"
     fill="none"
     stroke-linejoin="miter"
     d="m 140.12459,10.548335 h 31.26563"
     stroke="#00bf63"
     stroke-width="12"
     stroke-opacity="1"
     stroke-miterlimit="4"
     id="path190" />
</svg>
